<svg width="73" height="64" viewBox="0 0 73 64" fill="none" xmlns="http://www.w3.org/2000/svg">
<path fill-rule="evenodd" clip-rule="evenodd" d="M28.4799 59.6727H28.4436L28.3817 59.6212C18.5531 51.4571 7.43329 42.2203 2.51631 31.157C0.897505 27.6275 0.0396172 23.7873 4.13545e-05 19.8937C-0.0107697 14.5511 2.09853 9.42951 5.85125 5.68653C9.60398 1.94355 14.6834 -0.104903 19.9414 0.00414099C24.222 0.0110095 28.4104 1.26779 32.0077 3.62477C33.2558 4.4477 34.41 5.40684 35.4501 6.48431C34.1832 9.02889 33.8192 10.294 33.4129 12.4373C33.3053 13.0047 33.4233 12.7815 33.7947 12.0793C34.6027 10.5515 36.6099 6.75585 40.1014 3.90344C40.2365 3.80896 40.3726 3.71607 40.5099 3.62477C44.1057 1.26733 48.2931 0.0104708 52.5726 0.00414099C57.8307 -0.104903 62.91 1.94355 66.6627 5.68653C70.4155 9.42951 72.5248 14.5511 72.514 19.8937C72.477 23.7935 71.619 27.6402 69.9977 31.1754C65.0704 42.262 53.9177 51.5106 44.074 59.6727L44.0377 59.7021C43.7206 59.9647 43.4142 60.2229 43.1158 60.4744C40.7807 62.4423 38.9324 64 36.2186 64C33.5479 64 31.6486 62.3757 29.4603 60.504C29.1408 60.2308 28.815 59.9522 28.4799 59.6727ZM30.9101 21.1822C30.9101 18.3201 33.194 16 36.0114 16C38.8287 16 41.1126 18.3201 41.1126 21.1822V27.4008L47.2341 27.4008C50.0514 27.4008 52.3353 29.7209 52.3353 32.583C52.3353 35.445 50.0514 37.7652 47.2341 37.7652H41.1126V43.9838C41.1126 46.8458 38.8287 49.1659 36.0114 49.1659C33.194 49.1659 30.9101 46.8458 30.9101 43.9838V37.7652H24.7887C21.9714 37.7652 19.6875 35.445 19.6875 32.583C19.6875 29.7209 21.9714 27.4008 24.7887 27.4008H30.9101V21.1822Z" fill="#25AFF4"/>
<rect x="30.9102" y="27.4008" width="10.2024" height="10.3644" fill="#25AFF4" fill-opacity="0.15"/>
<path d="M30.9102 37.7653H41.1126V44.0649C41.1126 46.8822 38.8287 49.1661 36.0114 49.1661V49.1661C33.194 49.1661 30.9102 46.8822 30.9102 44.0649V37.7653Z" fill="#25AFF4" fill-opacity="0.3"/>
<path d="M41.1128 27.4008H47.1533C50.0153 27.4008 52.3355 29.7209 52.3355 32.5829V32.5829C52.3355 35.445 50.0153 37.7651 47.1533 37.7651H41.1128V27.4008Z" fill="#25AFF4" fill-opacity="0.3"/>
</svg>
