<svg width="376" height="70" viewBox="0 0 376 70" fill="none" xmlns="http://www.w3.org/2000/svg">
<path d="M52.4031 65.8473C52.4921 67.0086 51.5737 68 50.409 68H44.3498C43.3057 68 42.4372 67.1968 42.3559 66.1558L40 36L32.8917 60.5077C32.5199 61.7898 31.3455 62.672 30.0105 62.672H24.5079C23.1737 62.672 21.9998 61.7908 21.6272 60.5097L14.5 36L12.0685 66.1737C11.9846 67.2138 11.1152 68.0147 10.0717 68.0131L4.0387 68.0034C2.87407 68.0016 1.95734 67.0089 2.04795 65.8478L5.62408 20.0204C5.70532 18.9793 6.57379 18.176 7.61802 18.176H17.6914C18.5994 18.176 19.3935 18.7877 19.6252 19.6656L27.5 49.5L34.7717 19.7018C34.9902 18.8062 35.7927 18.176 36.7146 18.176H46.8993C47.9447 18.176 48.8137 18.981 48.8935 20.0233L52.4031 65.8473Z" fill="#203560"/>
<path d="M89.5374 18.176C90.241 18.176 90.7246 18.8833 90.4693 19.5389L88.4962 24.6057C88.197 25.374 87.457 25.88 86.6325 25.88H70C69.4477 25.88 69 26.3277 69 26.88V37.84C69 38.3923 69.4477 38.84 70 38.84H85.5C86.6046 38.84 87.5 39.7354 87.5 40.84V44.472C87.5 45.5766 86.6046 46.472 85.5 46.472H70C69.4477 46.472 69 46.9197 69 47.472V59.224C69 59.7763 69.4477 60.224 70 60.224H89C90.1046 60.224 91 61.1194 91 62.224V66C91 67.1046 90.1046 68 89 68H61C59.8954 68 59 67.1046 59 66V20.176C59 19.0714 59.8954 18.176 61 18.176H89.5374Z" fill="#203560"/>
<path d="M108.908 18.176C116.684 18.176 122.9 19.952 127.556 23.504C132.26 27.008 134.612 33.464 134.612 42.872C134.612 52.088 132.308 58.592 127.7 62.384C123.14 66.128 117.284 68 110.132 68H97.876C96.7714 68 95.876 67.1046 95.876 66V20.176C95.876 19.0714 96.7714 18.176 97.876 18.176H108.908ZM107.46 25.952C106.908 25.952 106.46 26.3997 106.46 26.952V59.224C106.46 59.7763 106.908 60.224 107.46 60.224H110.78C114.86 60.224 118.004 58.976 120.212 56.48C122.468 53.936 123.596 49.4 123.596 42.872C123.596 38.36 123.02 34.856 121.868 32.36C120.764 29.864 119.276 28.184 117.404 27.32C115.532 26.408 113.252 25.952 110.564 25.952H107.46Z" fill="#203560"/>
<path d="M170.336 68C169.232 68 168.336 67.1046 168.336 66V47.184C168.336 46.6317 167.888 46.184 167.336 46.184H152.848C152.296 46.184 151.848 46.6317 151.848 47.184V66C151.848 67.1046 150.953 68 149.848 68H143.264C142.16 68 141.264 67.1046 141.264 66V20.176C141.264 19.0714 142.16 18.176 143.264 18.176H149.848C150.953 18.176 151.848 19.0714 151.848 20.176V36.832C151.848 37.3843 152.296 37.832 152.848 37.832H167.336C167.888 37.832 168.336 37.3843 168.336 36.832V20.176C168.336 19.0714 169.232 18.176 170.336 18.176H176.92C178.025 18.176 178.92 19.0714 178.92 20.176V66C178.92 67.1046 178.025 68 176.92 68H170.336Z" fill="#203560"/>
<path d="M225.212 51.584C225.212 54.992 224.492 58.016 223.052 60.656C221.612 63.296 219.452 65.384 216.572 66.92C213.74 68.408 210.284 69.152 206.204 69.152C200.06 69.152 195.356 67.568 192.092 64.4C188.876 61.184 187.268 56.912 187.268 51.584V20.176C187.268 19.0714 188.164 18.176 189.268 18.176H195.852C196.957 18.176 197.852 19.0714 197.852 20.176V51.08C197.852 54.44 198.524 56.96 199.868 58.64C201.212 60.272 203.324 61.088 206.204 61.088C209.084 61.088 211.196 60.272 212.54 58.64C213.932 56.96 214.628 54.44 214.628 51.08V20.176C214.628 19.0714 215.524 18.176 216.628 18.176H223.212C224.317 18.176 225.212 19.0714 225.212 20.176V51.584Z" fill="#203560"/>
<path d="M259.146 41.648C262.506 42.272 265.218 43.496 267.282 45.32C269.394 47.096 270.45 49.832 270.45 53.528C270.45 58.76 268.578 62.48 264.834 64.688C261.09 66.896 255.882 68 249.21 68H235.658C234.553 68 233.658 67.1046 233.658 66V20.176C233.658 19.0714 234.553 18.176 235.658 18.176H247.266C254.082 18.176 259.29 19.184 262.89 21.2C266.49 23.216 268.29 26.456 268.29 30.92C268.29 33.848 267.402 36.224 265.626 38.048C263.898 39.824 261.738 41.024 259.146 41.648ZM245.242 25.808C244.689 25.808 244.242 26.2557 244.242 26.808V37.408C244.242 37.9603 244.689 38.408 245.242 38.408H249.426C252.018 38.408 254.01 37.88 255.402 36.824C256.794 35.72 257.49 34.064 257.49 31.856C257.49 29.648 256.746 28.088 255.258 27.176C253.77 26.264 251.442 25.808 248.274 25.808H245.242ZM249.282 60.152C252.594 60.152 255.114 59.672 256.842 58.712C258.57 57.704 259.434 55.832 259.434 53.096C259.434 48.104 256.362 45.608 250.218 45.608H245.242C244.689 45.608 244.242 46.0557 244.242 46.608V59.152C244.242 59.7043 244.689 60.152 245.242 60.152H249.282Z" fill="#203560"/>
<path d="M276 16.0421C276 7.75785 282.716 1.04211 291 1.04211H360C368.284 1.04211 375 7.75784 375 16.0421V29.8105C375 38.0948 368.29 44.8105 360.006 44.8105C336.979 44.8105 294.888 44.8105 288.505 44.8105C279.647 44.8105 276 53.1474 276 53.1474V16.0421Z" fill="#26C2C2"/>
<path d="M353.12 36.9239C350.394 36.9239 347.931 36.3361 345.73 35.1606C343.554 33.9851 341.841 32.372 340.59 30.3211C339.365 28.2452 338.752 25.9192 338.752 23.3432C338.752 20.7671 339.365 18.4536 340.59 16.4027C341.841 14.3269 343.554 12.7012 345.73 11.5257C347.931 10.3502 350.394 9.76245 353.12 9.76245C355.847 9.76245 358.298 10.3502 360.474 11.5257C362.649 12.7012 364.363 14.3269 365.613 16.4027C366.864 18.4536 367.489 20.7671 367.489 23.3432C367.489 25.9192 366.864 28.2452 365.613 30.3211C364.363 32.372 362.649 33.9851 360.474 35.1606C358.298 36.3361 355.847 36.9239 353.12 36.9239ZM353.12 31.7467C354.671 31.7467 356.072 31.3966 357.322 30.6963C358.573 29.971 359.548 28.9705 360.248 27.695C360.974 26.4195 361.336 24.9688 361.336 23.3432C361.336 21.7175 360.974 20.2669 360.248 18.9913C359.548 17.7158 358.573 16.7279 357.322 16.0276C356.072 15.3023 354.671 14.9396 353.12 14.9396C351.57 14.9396 350.169 15.3023 348.919 16.0276C347.668 16.7279 346.68 17.7158 345.955 18.9913C345.255 20.2669 344.905 21.7175 344.905 23.3432C344.905 24.9688 345.255 26.4195 345.955 27.695C346.68 28.9705 347.668 29.971 348.919 30.6963C350.169 31.3966 351.57 31.7467 353.12 31.7467Z" fill="white"/>
<path d="M331.037 36.4737C330.381 36.4737 329.766 36.1517 329.393 35.6121L325.521 30.0197C325.147 29.4801 324.533 29.1581 323.877 29.1581H319.335V35.4737C319.335 36.026 318.887 36.4737 318.335 36.4737H314.257C313.705 36.4737 313.257 36.026 313.257 35.4737V14.2126C313.257 12.0035 315.048 10.2126 317.257 10.2126H324.624C326.95 10.2126 328.964 10.6003 330.664 11.3756C332.39 12.151 333.716 13.2514 334.641 14.677C335.566 16.1026 336.029 17.7908 336.029 19.7417C336.029 21.6925 335.554 23.3807 334.604 24.8063C333.678 26.2069 332.353 27.2823 330.627 28.0326L335.42 34.9015C335.882 35.5644 335.408 36.4737 334.6 36.4737H331.037ZM329.877 19.7417C329.877 18.266 329.401 17.1406 328.451 16.3652C327.501 15.5649 326.112 15.1647 324.287 15.1647H319.335V24.3186H324.287C326.112 24.3186 327.501 23.9184 328.451 23.1181C329.401 22.3177 329.877 21.1923 329.877 19.7417Z" fill="white"/>
<path d="M297.83 10.2126C300.156 10.2126 302.169 10.6003 303.87 11.3756C305.596 12.151 306.921 13.2514 307.847 14.677C308.772 16.1026 309.235 17.7908 309.235 19.7417C309.235 21.6675 308.772 23.3557 307.847 24.8063C306.921 26.2319 305.596 27.3324 303.87 28.1077C302.169 28.858 300.156 29.2332 297.83 29.2332H292.54V35.4737C292.54 36.026 292.093 36.4737 291.54 36.4737H287.463C286.911 36.4737 286.463 36.026 286.463 35.4737V14.2126C286.463 12.0035 288.254 10.2126 290.463 10.2126H297.83ZM297.492 24.2811C299.318 24.2811 300.706 23.8934 301.657 23.1181C302.607 22.3177 303.082 21.1923 303.082 19.7417C303.082 18.266 302.607 17.1406 301.657 16.3652C300.706 15.5649 299.318 15.1647 297.492 15.1647H292.54V24.2811H297.492Z" fill="white"/>
</svg>
