<svg width="183" height="183" viewBox="0 0 183 183" fill="none" xmlns="http://www.w3.org/2000/svg">
<rect width="183" height="183" rx="30" fill="white"/>
<path d="M26 161C26 169.284 32.7157 176 41 176H144C152.284 176 159 169.284 159 161V147.32C159 139.036 152.326 132.32 144.041 132.32C114.749 132.32 51.8795 132.32 42.8 132.32C30.9 132.32 26 124 26 124V161Z" fill="#26C2C2"/>
<path d="M126 169C122.964 169 120.221 168.351 117.77 167.052C115.347 165.754 113.44 163.972 112.047 161.707C110.682 159.414 110 156.845 110 154C110 151.155 110.682 148.599 112.047 146.334C113.44 144.041 115.347 142.246 117.77 140.948C120.221 139.649 122.964 139 126 139C129.036 139 131.765 139.649 134.188 140.948C136.611 142.246 138.519 144.041 139.911 146.334C141.304 148.599 142 151.155 142 154C142 156.845 141.304 159.414 139.911 161.707C138.519 163.972 136.611 165.754 134.188 167.052C131.765 168.351 129.036 169 126 169ZM126 163.282C127.727 163.282 129.286 162.895 130.679 162.122C132.071 161.32 133.158 160.215 133.937 158.807C134.745 157.398 135.149 155.796 135.149 154C135.149 152.204 134.745 150.602 133.937 149.193C133.158 147.785 132.071 146.693 130.679 145.92C129.286 145.119 127.727 144.718 126 144.718C124.273 144.718 122.714 145.119 121.321 145.92C119.929 146.693 118.829 147.785 118.021 149.193C117.241 150.602 116.851 152.204 116.851 154C116.851 155.796 117.241 157.398 118.021 158.807C118.829 160.215 119.929 161.32 121.321 162.122C122.714 162.895 124.273 163.282 126 163.282Z" fill="white"/>
<path d="M100.764 169C100.101 169 99.4803 168.671 99.1082 168.122L94.6369 161.521C94.2648 160.972 93.6445 160.643 92.9811 160.643H87.7935V168C87.7935 168.552 87.3458 169 86.7935 169H82C81.4477 169 81 168.552 81 168V143C81 140.791 82.7909 139 85 139H93.7065C96.3065 139 98.557 139.443 100.458 140.329C102.387 141.214 103.869 142.471 104.903 144.1C105.938 145.729 106.455 147.657 106.455 149.886C106.455 152.114 105.924 154.043 104.861 155.671C103.827 157.271 102.345 158.5 100.416 159.357L105.932 167.436C106.385 168.1 105.91 169 105.106 169H100.764ZM99.5774 149.886C99.5774 148.2 99.0462 146.914 97.9839 146.029C96.9215 145.114 95.3699 144.657 93.329 144.657H87.7935V155.114H93.329C95.3699 155.114 96.9215 154.657 97.9839 153.743C99.0462 152.829 99.5774 151.543 99.5774 149.886Z" fill="white"/>
<path d="M62.9786 139C65.6343 139 67.933 139.443 69.8748 140.329C71.8451 141.214 73.3586 142.471 74.4152 144.1C75.4717 145.729 76 147.657 76 149.886C76 152.086 75.4717 154.014 74.4152 155.671C73.3586 157.3 71.8451 158.557 69.8748 159.443C67.933 160.3 65.6343 160.729 62.9786 160.729H56.939V168C56.939 168.552 56.4913 169 55.939 169H51C50.4477 169 50 168.552 50 168V143C50 140.791 51.7909 139 54 139H62.9786ZM62.5931 155.071C64.6776 155.071 66.2625 154.629 67.3476 153.743C68.4327 152.829 68.9753 151.543 68.9753 149.886C68.9753 148.2 68.4327 146.914 67.3476 146.029C66.2625 145.114 64.6776 144.657 62.5931 144.657H56.939V155.071H62.5931Z" fill="white"/>
<path d="M76.5231 63.6713C76.6121 64.8326 75.6937 65.824 74.529 65.824H68.4698C67.4257 65.824 66.5572 65.0208 66.4759 63.9798L64.12 33.824L57.0117 58.3317C56.6399 59.6138 55.4655 60.496 54.1305 60.496H48.6279C47.2937 60.496 46.1198 59.6148 45.7472 58.3337L38.62 33.824L36.1885 63.9977C36.1046 65.0378 35.2352 65.8387 34.1917 65.8371L28.1587 65.8274C26.9941 65.8256 26.0773 64.833 26.1679 63.6718L29.7441 17.8444C29.8253 16.8033 30.6938 16 31.738 16H41.8114C42.7194 16 43.5134 16.6117 43.7452 17.4896L51.62 47.324L58.8916 17.5259C59.1102 16.6302 59.9127 16 60.8346 16H71.0193C72.0647 16 72.9337 16.805 73.0135 17.8473L76.5231 63.6713Z" fill="#203560"/>
<path d="M113.657 16C114.361 16 114.845 16.7073 114.589 17.3629L112.616 22.4297C112.317 23.198 111.577 23.704 110.753 23.704H94.12C93.5677 23.704 93.12 24.1517 93.12 24.704V35.664C93.12 36.2163 93.5677 36.664 94.12 36.664H109.62C110.725 36.664 111.62 37.5594 111.62 38.664V42.296C111.62 43.4006 110.725 44.296 109.62 44.296H94.12C93.5677 44.296 93.12 44.7437 93.12 45.296V57.048C93.12 57.6003 93.5677 58.048 94.12 58.048H113.12C114.225 58.048 115.12 58.9434 115.12 60.048V63.824C115.12 64.9286 114.225 65.824 113.12 65.824L84.5 65.824C83.3954 65.824 82.5 64.9286 82.5 63.824V18C82.5 16.8954 83.3954 16 84.5 16L113.657 16Z" fill="#203560"/>
<path d="M133.296 16C141.072 16 147.288 17.776 151.944 21.328C156.648 24.832 159 31.288 159 40.696C159 49.912 156.696 56.416 152.088 60.208C147.528 63.952 141.672 65.824 134.52 65.824H121.628C120.524 65.824 119.628 64.9286 119.628 63.824V18C119.628 16.8954 120.524 16 121.628 16H133.296ZM131.58 23.776C131.028 23.776 130.58 24.2237 130.58 24.776V57.048C130.58 57.6003 131.028 58.048 131.58 58.048H135.168C139.248 58.048 142.392 56.8 144.6 54.304C146.856 51.76 147.984 47.224 147.984 40.696C147.984 36.184 147.408 32.68 146.256 30.184C145.152 27.688 143.664 26.008 141.792 25.144C139.92 24.232 137.64 23.776 134.952 23.776H131.58Z" fill="#203560"/>
<path d="M58.6185 123.148C57.514 123.148 56.6185 122.253 56.6185 121.148V103C56.6185 102.448 56.1708 102 55.6185 102H41.1306C40.5783 102 40.1306 102.448 40.1306 103V121.148C40.1306 122.253 39.2351 123.148 38.1306 123.148H30.5C29.3954 123.148 28.5 122.253 28.5 121.148V75.324C28.5 74.2194 29.3954 73.324 30.5 73.324H38.1306C39.2351 73.324 40.1306 74.2194 40.1306 75.324V91C40.1306 91.5523 40.5783 92 41.1306 92H55.6185C56.1708 92 56.6185 91.5523 56.6185 91V75.324C56.6185 74.2194 57.514 73.324 58.6185 73.324H66.5C67.6046 73.324 68.5 74.2194 68.5 75.324V121.148C68.5 122.253 67.6046 123.148 66.5 123.148H58.6185Z" fill="#203560"/>
<path d="M114.084 106.732C114.084 110.14 113.364 113.164 111.924 115.804C110.484 118.444 108.324 120.532 105.444 122.068C102.612 123.556 98.5666 124.3 94.4866 124.3C87.5 124.3 82.796 122.716 79.532 119.548C76.316 116.332 74.708 112.06 74.708 106.732V75.324C74.708 74.2194 75.6034 73.324 76.708 73.324H83.5C84.6046 73.324 85.5 74.2194 85.5 75.324V106.228C85.5 109.588 86.172 112.108 87.516 113.788C88.86 115.42 90.764 116.236 94.4866 116.236C97.3666 116.236 99.4786 115.42 100.823 113.788C102.215 112.108 103.5 109.588 103.5 106.228V75.324C103.5 74.2194 104.395 73.324 105.5 73.324H112.084C113.189 73.324 114.084 74.2194 114.084 75.324V106.732Z" fill="#203560"/>
<path d="M147.88 96.796C151.24 97.42 153.952 98.644 156.016 100.468C158.128 102.244 159.184 104.98 159.184 108.676C159.184 113.908 157.312 117.628 153.568 119.836C149.824 122.044 144.616 123.148 137.944 123.148H123C121.895 123.148 121 122.253 121 121.148V75.324C121 74.2194 121.895 73.324 123 73.324H136C142.816 73.324 148.024 74.332 151.624 76.348C155.224 78.364 157.024 81.604 157.024 86.068C157.024 88.996 156.136 91.372 154.36 93.196C152.632 94.972 150.472 96.172 147.88 96.796ZM133.524 80.956C132.972 80.956 132.524 81.4037 132.524 81.956V92.556C132.524 93.1083 132.972 93.556 133.524 93.556H138.16C140.752 93.556 142.744 93.028 144.136 91.972C145.528 90.868 146.224 89.212 146.224 87.004C146.224 84.796 145.48 83.236 143.992 82.324C142.504 81.412 140.176 80.956 137.008 80.956H133.524ZM138.016 115.3C141.328 115.3 143.848 114.82 145.576 113.86C147.304 112.852 148.168 110.98 148.168 108.244C148.168 103.252 145.096 100.756 138.952 100.756H133.524C132.972 100.756 132.524 101.204 132.524 101.756V114.3C132.524 114.852 132.972 115.3 133.524 115.3H138.016Z" fill="#203560"/>
</svg>
