<svg width="377" height="70" viewBox="0 0 377 70" fill="none" xmlns="http://www.w3.org/2000/svg">
<path d="M51.4031 65.8473C51.4921 67.0086 50.5737 68 49.409 68H43.3498C42.3057 68 41.4372 67.1968 41.3559 66.1558L39 36L31.8917 60.5077C31.5199 61.7898 30.3455 62.672 29.0105 62.672H23.5079C22.1737 62.672 20.9998 61.7908 20.6272 60.5097L13.5 36L11.0685 66.1737C10.9846 67.2138 10.1152 68.0147 9.07174 68.0131L3.0387 68.0034C1.87407 68.0016 0.957341 67.0089 1.04795 65.8478L4.62408 20.0204C4.70532 18.9793 5.57379 18.176 6.61802 18.176H16.6914C17.5994 18.176 18.3935 18.7877 18.6252 19.6656L26.5 49.5L33.7717 19.7018C33.9902 18.8062 34.7927 18.176 35.7146 18.176H45.8993C46.9447 18.176 47.8137 18.981 47.8935 20.0233L51.4031 65.8473Z" fill="white"/>
<path d="M88.5374 18.176C89.241 18.176 89.7246 18.8833 89.4693 19.5389L87.4962 24.6057C87.197 25.374 86.457 25.88 85.6325 25.88H69C68.4477 25.88 68 26.3277 68 26.88V37.84C68 38.3923 68.4477 38.84 69 38.84H84.5C85.6046 38.84 86.5 39.7354 86.5 40.84V44.472C86.5 45.5766 85.6046 46.472 84.5 46.472H69C68.4477 46.472 68 46.9197 68 47.472V59.224C68 59.7763 68.4477 60.224 69 60.224H88C89.1046 60.224 90 61.1194 90 62.224V66C90 67.1046 89.1046 68 88 68H60C58.8954 68 58 67.1046 58 66V20.176C58 19.0714 58.8954 18.176 60 18.176H88.5374Z" fill="white"/>
<path d="M107.908 18.176C115.684 18.176 121.9 19.952 126.556 23.504C131.26 27.008 133.612 33.464 133.612 42.872C133.612 52.088 131.308 58.592 126.7 62.384C122.14 66.128 116.284 68 109.132 68H96.876C95.7714 68 94.876 67.1046 94.876 66V20.176C94.876 19.0714 95.7714 18.176 96.876 18.176H107.908ZM106.46 25.952C105.908 25.952 105.46 26.3997 105.46 26.952V59.224C105.46 59.7763 105.908 60.224 106.46 60.224H109.78C113.86 60.224 117.004 58.976 119.212 56.48C121.468 53.936 122.596 49.4 122.596 42.872C122.596 38.36 122.02 34.856 120.868 32.36C119.764 29.864 118.276 28.184 116.404 27.32C114.532 26.408 112.252 25.952 109.564 25.952H106.46Z" fill="white"/>
<path d="M169.336 68C168.232 68 167.336 67.1046 167.336 66V47.184C167.336 46.6317 166.888 46.184 166.336 46.184H151.848C151.296 46.184 150.848 46.6317 150.848 47.184V66C150.848 67.1046 149.953 68 148.848 68H142.264C141.16 68 140.264 67.1046 140.264 66V20.176C140.264 19.0714 141.16 18.176 142.264 18.176H148.848C149.953 18.176 150.848 19.0714 150.848 20.176V36.832C150.848 37.3843 151.296 37.832 151.848 37.832H166.336C166.888 37.832 167.336 37.3843 167.336 36.832V20.176C167.336 19.0714 168.232 18.176 169.336 18.176H175.92C177.025 18.176 177.92 19.0714 177.92 20.176V66C177.92 67.1046 177.025 68 175.92 68H169.336Z" fill="white"/>
<path d="M224.212 51.584C224.212 54.992 223.492 58.016 222.052 60.656C220.612 63.296 218.452 65.384 215.572 66.92C212.74 68.408 209.284 69.152 205.204 69.152C199.06 69.152 194.356 67.568 191.092 64.4C187.876 61.184 186.268 56.912 186.268 51.584V20.176C186.268 19.0714 187.164 18.176 188.268 18.176H194.852C195.957 18.176 196.852 19.0714 196.852 20.176V51.08C196.852 54.44 197.524 56.96 198.868 58.64C200.212 60.272 202.324 61.088 205.204 61.088C208.084 61.088 210.196 60.272 211.54 58.64C212.932 56.96 213.628 54.44 213.628 51.08V20.176C213.628 19.0714 214.524 18.176 215.628 18.176H222.212C223.317 18.176 224.212 19.0714 224.212 20.176V51.584Z" fill="white"/>
<path d="M258.146 41.648C261.506 42.272 264.218 43.496 266.282 45.32C268.394 47.096 269.45 49.832 269.45 53.528C269.45 58.76 267.578 62.48 263.834 64.688C260.09 66.896 254.882 68 248.21 68H234.658C233.553 68 232.658 67.1046 232.658 66V20.176C232.658 19.0714 233.553 18.176 234.658 18.176H246.266C253.082 18.176 258.29 19.184 261.89 21.2C265.49 23.216 267.29 26.456 267.29 30.92C267.29 33.848 266.402 36.224 264.626 38.048C262.898 39.824 260.738 41.024 258.146 41.648ZM244.242 25.808C243.689 25.808 243.242 26.2557 243.242 26.808V37.408C243.242 37.9603 243.689 38.408 244.242 38.408H248.426C251.018 38.408 253.01 37.88 254.402 36.824C255.794 35.72 256.49 34.064 256.49 31.856C256.49 29.648 255.746 28.088 254.258 27.176C252.77 26.264 250.442 25.808 247.274 25.808H244.242ZM248.282 60.152C251.594 60.152 254.114 59.672 255.842 58.712C257.57 57.704 258.434 55.832 258.434 53.096C258.434 48.104 255.362 45.608 249.218 45.608H244.242C243.689 45.608 243.242 46.0557 243.242 46.608V59.152C243.242 59.7043 243.689 60.152 244.242 60.152H248.282Z" fill="white"/>
<path d="M277 16.0421C277 7.75785 283.716 1.04211 292 1.04211H361C369.284 1.04211 376 7.75784 376 16.0421V29.8105C376 38.0948 369.29 44.8105 361.006 44.8105C337.979 44.8105 295.888 44.8105 289.505 44.8105C280.647 44.8105 277 53.1474 277 53.1474V16.0421Z" fill="#26C2C2"/>
<path d="M354.12 36.9239C351.394 36.9239 348.931 36.3361 346.73 35.1606C344.554 33.9851 342.841 32.3719 341.59 30.3211C340.365 28.2452 339.752 25.9192 339.752 23.3431C339.752 20.7671 340.365 18.4536 341.59 16.4027C342.841 14.3269 344.554 12.7012 346.73 11.5257C348.931 10.3502 351.394 9.76244 354.12 9.76244C356.847 9.76244 359.298 10.3502 361.474 11.5257C363.649 12.7012 365.363 14.3269 366.613 16.4027C367.864 18.4536 368.489 20.7671 368.489 23.3431C368.489 25.9192 367.864 28.2452 366.613 30.3211C365.363 32.3719 363.649 33.9851 361.474 35.1606C359.298 36.3361 356.847 36.9239 354.12 36.9239ZM354.12 31.7467C355.671 31.7467 357.072 31.3965 358.322 30.6962C359.573 29.9709 360.548 28.9705 361.248 27.695C361.974 26.4194 362.336 24.9688 362.336 23.3431C362.336 21.7175 361.974 20.2669 361.248 18.9913C360.548 17.7158 359.573 16.7279 358.322 16.0276C357.072 15.3023 355.671 14.9396 354.12 14.9396C352.57 14.9396 351.169 15.3023 349.919 16.0276C348.668 16.7279 347.68 17.7158 346.955 18.9913C346.255 20.2669 345.905 21.7175 345.905 23.3431C345.905 24.9688 346.255 26.4194 346.955 27.695C347.68 28.9705 348.668 29.9709 349.919 30.6962C351.169 31.3965 352.57 31.7467 354.12 31.7467Z" fill="#203560"/>
<path d="M332.037 36.4737C331.381 36.4737 330.766 36.1517 330.393 35.6121L326.521 30.0197C326.147 29.4801 325.533 29.1581 324.877 29.1581H320.335V35.4737C320.335 36.026 319.887 36.4737 319.335 36.4737H315.257C314.705 36.4737 314.257 36.026 314.257 35.4737V14.2126C314.257 12.0035 316.048 10.2126 318.257 10.2126H325.624C327.95 10.2126 329.964 10.6003 331.664 11.3756C333.39 12.1509 334.716 13.2514 335.641 14.677C336.566 16.1026 337.029 17.7908 337.029 19.7416C337.029 21.6925 336.554 23.3807 335.604 24.8063C334.678 26.2069 333.353 27.2823 331.627 28.0326L336.42 34.9014C336.882 35.5644 336.408 36.4737 335.6 36.4737H332.037ZM330.877 19.7416C330.877 18.266 330.401 17.1405 329.451 16.3652C328.501 15.5649 327.112 15.1647 325.287 15.1647H320.335V24.3186H325.287C327.112 24.3186 328.501 23.9184 329.451 23.1181C330.401 22.3177 330.877 21.1923 330.877 19.7416Z" fill="#203560"/>
<path d="M298.83 10.2126C301.156 10.2126 303.169 10.6003 304.87 11.3756C306.596 12.1509 307.921 13.2514 308.847 14.677C309.772 16.1026 310.235 17.7908 310.235 19.7416C310.235 21.6675 309.772 23.3557 308.847 24.8063C307.921 26.2319 306.596 27.3323 304.87 28.1077C303.169 28.858 301.156 29.2331 298.83 29.2331H293.54V35.4737C293.54 36.026 293.093 36.4737 292.54 36.4737H288.463C287.911 36.4737 287.463 36.026 287.463 35.4737V14.2126C287.463 12.0035 289.254 10.2126 291.463 10.2126H298.83ZM298.492 24.2811C300.318 24.2811 301.706 23.8934 302.657 23.1181C303.607 22.3177 304.082 21.1923 304.082 19.7416C304.082 18.266 303.607 17.1405 302.657 16.3652C301.706 15.5649 300.318 15.1647 298.492 15.1647H293.54V24.2811H298.492Z" fill="#203560"/>
</svg>
